PathFileType	4	(X/Y/Z)	OpenSim_Sub10_CSBaseline_Gyro.trc
DataRate	CameraRate	NumFrames	NumMarkers	Units	OrigDataRate	OrigDataStartFrame	OrigNumFrames
100	100	40	8	m	100	4556	9111
Frame#	Time	torso_imu_offset_imu	pelvis_imu_offset_imu	tibia_r_imu_offset_imu	femur_r_imu_offset_imu	tibia_l_imu_offset_imu	femur_l_imu_offset_imu	toes_r_imu_offset_imu	toes_l_imu_offset_imu
				X1	Y1	Z1	X2	Y2	Z2	X3	Y3	Z3	X4	Y4	Z4	X5	Y5	Z5	X6	Y6	Z6	X7	Y7	Z7	X8		Y8	Z8	

4556	45.55000000	0.24415259	0.17630377	-0.22606693	0.37356179	0.06782424	-0.00712264	0.72586451	-0.38298847	-0.91087272	1.05468073	-0.07730357	-0.74841708	0.51374108	-0.30327891	2.74645912	0.04416686	0.96993068	-1.06264781	0.23701799	0.15333597	-0.02000962	0.69575789	-4.98467607	0.06921053
4557	45.56000000	0.28895916	0.15296515	-0.25523422	0.41437159	0.14894345	0.00622330	-0.06356277	-0.43781077	-0.95793632	0.62604110	-0.38272717	-1.17443490	0.48032966	-0.34990121	2.79244117	0.13957852	1.02217791	-1.20408619	0.19852379	0.15665944	0.00560937	0.56059749	-5.05345631	0.23041060
4558	45.57000000	0.34220341	0.11089638	-0.24844928	0.48367730	0.17853343	0.03058779	-0.86095296	-0.32534173	-0.85888661	0.08585696	-0.49284039	-1.48775532	0.38360177	-0.40986629	2.72534021	0.23888225	1.06803275	-1.35066082	0.14079554	0.13994104	-0.02894474	0.22410535	-5.11378644	0.56187066
4559	45.58000000	0.39339963	0.09541585	-0.22405716	0.56759909	0.17779815	0.07348210	-1.47663044	-0.09807981	-0.65526476	-0.50855737	-0.45311601	-1.61938818	0.16083060	-0.47342193	2.61896237	0.30930027	1.09731668	-1.57892344	0.14981552	0.09614632	-0.02415297	-0.26044771	-5.45684191	0.74438685
4560	45.59000000	0.41642660	0.07232951	-0.21142662	0.63823309	0.18820888	0.10772060	-1.78872149	-0.06464628	-0.55895699	-1.00598850	-0.40390392	-1.52732318	-0.13663126	-0.55563870	2.49935923	0.36244788	1.10551797	-1.80896861	0.15854790	0.06371201	0.00207081	0.22169853	-5.74883043	0.87135996
4561	45.60000000	0.42828455	0.03313733	-0.18381783	0.65152490	0.20155114	0.14747787	-1.63908281	-0.13338559	-0.58650454	-1.23149313	-0.32928722	-1.31105295	-0.33163059	-0.59466567	2.40477410	0.44626757	1.10609120	-1.97595413	0.09223237	0.03448465	0.01306376	-0.50655144	-5.79348867	1.24092468
4562	45.61000000	0.46450691	0.00988317	-0.14012760	0.63108420	0.21981424	0.16311070	-1.13870940	-0.10661195	-0.57936253	-1.20641117	-0.15520988	-1.08344166	-0.39673452	-0.60393484	2.37058496	0.52657366	1.04048851	-2.21976547	0.11788192	0.04161398	0.02201405	-0.71596498	-5.44345665	1.32088007
4563	45.62000000	0.49636979	-0.01272390	-0.10316976	0.60199177	0.22739889	0.16552018	-0.45521957	-0.08958018	-0.52257881	-1.05338306	0.03948612	-0.95590193	-0.36595980	-0.59795836	2.30114244	0.63148544	0.91870439	-2.33712071	0.07347598	0.04134994	0.03992717	-0.11297290	-4.70699462	1.35022475
4564	45.63000000	0.49448578	-0.04915782	-0.07515199	0.56095722	0.22370578	0.17045829	0.34052896	-0.13289515	-0.48846879	-0.73605239	0.14640103	-0.97348100	-0.23532857	-0.37384354	2.17868022	0.68480026	0.77771324	-2.37156313	0.07379627	0.04194632	0.05766841	-0.72414050	-4.21520730	1.55489609
4565	45.64000000	0.48680215	-0.08566958	-0.02941211	0.51231581	0.22359931	0.17491449	1.03116365	-0.16643938	-0.50464363	-0.28486097	0.16740667	-1.05115503	-0.10299810	-0.02401127	2.04884486	0.74077358	0.71846994	-2.44585350	0.06341710	0.02743726	0.05063518	-1.10098408	-3.56243393	1.47731274
4566	45.65000000	0.47523612	-0.12173703	0.02679645	0.46254340	0.22370813	0.17811728	1.42629041	-0.20110107	-0.51429162	0.22105330	0.13543922	-1.11176418	0.03148375	0.04283926	1.81865199	0.77274367	0.70316819	-2.36762788	0.08700308	0.02510649	0.03527254	-0.35043221	-2.85873423	1.12398528
4567	45.66000000	0.48634356	-0.14838074	0.09344689	0.40864322	0.21259661	0.16484093	1.54330135	-0.23112560	-0.48414325	0.66665023	0.08392571	-1.16712844	0.68964484	-0.34338016	1.43058341	0.84159731	0.73770041	-2.31706075	0.02232140	0.02575786	0.03376662	1.76357631	-0.84473832	1.44506606
4568	45.67000000	0.52718989	-0.17461483	0.15844604	0.35068506	0.19985009	0.11899732	1.43973337	-0.20961302	-0.43307696	0.99098079	0.03955590	-1.20141359	1.77387870	-0.77476821	0.93762051	0.90060631	0.85684833	-2.26010248	0.10513341	0.03602826	0.00970608	1.70827875	0.88680858	1.50826909
4569	45.68000000	0.52664879	-0.21389483	0.19783694	0.31575408	0.19898769	0.05375229	1.15068581	-0.20312518	-0.41495977	1.16028806	0.00869283	-1.19413171	2.46275345	-1.00773025	0.35236903	1.03332997	0.85353239	-2.05798529	0.05739579	0.02850545	-0.01391675	0.94518659	1.32213662	1.76682467
4570	45.69000000	0.48665232	-0.24824296	0.22269697	0.30499136	0.19635461	-0.01524277	0.69879700	-0.20344312	-0.40191497	1.19740180	-0.04124696	-1.14832802	2.86689821	-0.93302199	-0.27445968	1.15633816	0.85121058	-1.92717135	0.09982394	0.01725543	-0.03720552	0.02165928	1.56172561	1.84882236
4571	45.70000000	0.44811766	-0.26665849	0.24502339	0.32370640	0.18534880	-0.08251047	0.17213876	-0.16416382	-0.37488719	1.19873280	-0.09407008	-1.09204947	2.97738242	-0.71735715	-0.83498668	1.19270975	0.83316291	-1.83612331	0.08719928	0.01310869	-0.04450682	-0.06039493	1.91536508	1.63437369
4572	45.71000000	0.41983352	-0.27508467	0.28221303	0.35752047	0.16861825	-0.14301748	-0.23253933	-0.11219395	-0.35411133	1.17240661	-0.14307740	-1.05870399	2.63534145	-0.57492959	-1.31430734	1.08065485	0.80592262	-1.78319634	0.08035952	0.01623586	-0.04727602	0.50165470	2.40282081	1.24237555
4573	45.72000000	0.38215844	-0.26526031	0.33224633	0.39837643	0.16081537	-0.18266706	-0.44037898	-0.09424279	-0.35232116	1.10558104	-0.17331973	-1.04801197	2.13076336	-0.50998916	-1.75816697	0.86309235	0.73537543	-1.77698293	0.08390925	0.00117155	-0.04215841	0.74854249	2.85932991	0.86760042
4574	45.73000000	0.33580097	-0.23305919	0.35136107	0.44538414	0.16365483	-0.19777151	-0.46757109	-0.09013548	-0.34116805	0.98723688	-0.20267640	-1.06304807	1.67557057	-0.44863386	-2.17485896	0.62092773	0.66505974	-1.72816888	0.08197457	-0.01603300	-0.04414253	0.70448379	3.21027387	0.56074539
4575	45.74000000	0.35553920	-0.24359279	0.33594659	0.49914594	0.17836637	-0.19885458	-0.41661772	-0.08573216	-0.30200157	0.82415573	-0.22270584	-1.10239282	1.23198258	-0.35930529	-2.54930247	0.39198979	0.57888286	-1.66810615	0.10456163	-0.01104060	-0.04336559	0.61600573	3.50296167	0.29622929
4576	45.75000000	0.36330139	-0.24357979	0.28367423	0.52556482	0.18879764	-0.18903085	-0.28891756	-0.09013590	-0.25953123	0.62749713	-0.21222444	-1.16862133	0.80408399	-0.25910592	-2.88619852	0.10352710	0.49568533	-1.60483584	0.08447701	-0.02044799	-0.03891222	0.68110257	3.79161045	0.05797100
4577	45.76000000	0.35410601	-0.21569356	0.21914052	0.53211520	0.20397549	-0.16928916	-0.02119710	-0.10823942	-0.23372651	0.42497989	-0.14767925	-1.20836297	0.44698483	-0.12673686	-3.24023201	-0.16177315	0.42127209	-1.51803310	0.08539012	-0.02550623	-0.03956615	0.88752035	4.06568819	-0.14825461
4578	45.77000000	0.37148952	-0.18958051	0.21720490	0.51263859	0.20560026	-0.15419049	0.26333216	-0.16495587	-0.21472060	0.24372814	-0.06301792	-1.19789743	0.16358792	-0.01463576	-3.59582067	-0.32282321	0.29316538	-1.47735279	0.08582723	-0.03869868	-0.03494370	1.03826634	4.27697945	-0.30767664
4579	45.78000000	0.38612178	-0.16793229	0.20084361	0.46842121	0.21153817	-0.14496811	0.34290923	-0.19050588	-0.17321100	0.07819088	0.00644741	-1.16319730	-0.02205970	0.02057959	-3.93811199	-0.49249222	0.25010432	-1.39678313	0.09323291	-0.05926223	-0.02791142	1.10065662	4.43117800	-0.43628049
4580	45.79000000	0.39651419	-0.16926587	0.16576155	0.39625585	0.20962848	-0.14284762	0.27225154	-0.16546940	-0.13546417	-0.05446033	0.03878422	-1.13209235	-0.12017927	0.06700783	-4.23850161	-0.74115375	0.27764353	-1.25032094	0.06635702	-0.05986423	-0.02281137	1.11772023	4.54579370	-0.53788341
4581	45.80000000	0.40748640	-0.19278859	0.13327418	0.30992087	0.20775901	-0.14959536	0.16916272	-0.13665824	-0.15696368	-0.13412053	0.04155988	-1.12553648	-0.27429249	0.14940710	-4.53115814	-0.90496841	0.26531713	-1.13086798	0.07336158	-0.05791901	-0.04248785	1.10171050	4.66855959	-0.64150965
4582	45.81000000	0.41149607	-0.18097208	0.09505588	0.22948822	0.18979278	-0.15877799	0.03714528	-0.10782751	-0.20007646	-0.13517500	0.03021770	-1.12099292	-0.43713086	0.26076648	-4.82651368	-1.06349290	0.24691975	-0.95931892	0.09951591	-0.04420519	-0.06778650	1.07695035	4.80246291	-0.75078719
4583	45.82000000	0.40770779	-0.15731416	0.07832738	0.15752195	0.18261595	-0.16808691	-0.12363673	-0.07678937	-0.20191925	-0.08284235	0.04140701	-1.10400889	-0.60213012	0.42687512	-5.11349265	-1.12658014	0.24346896	-0.82094915	0.08821270	-0.05108621	-0.08946137	1.06595783	4.92807575	-0.87137389
4584	45.83000000	0.39205020	-0.14286255	0.08030261	0.09839794	0.17852553	-0.18734247	-0.30087982	-0.07072708	-0.18673330	-0.00111077	0.04745827	-1.07927393	-0.83073591	0.65070987	-5.35611748	-1.17724924	0.22655662	-0.68699625	0.05361832	-0.03850841	-0.09247709	1.04344191	5.05630821	-0.96864552
4585	45.84000000	0.37110267	-0.13905948	0.08334563	0.06176522	0.16051904	-0.18297082	-0.45074207	-0.04818601	-0.21270186	0.06897658	0.04594387	-1.06720587	-1.08133908	0.82139292	-5.59638521	-1.15640390	0.18567711	-0.54726628	0.05816336	-0.04598875	-0.10742349	1.03728153	5.14044349	-1.05352750
4586	45.85000000	0.31909812	-0.16454135	0.09462356	0.02837474	0.13878926	-0.17623505	-0.46360013	-0.01269080	-0.30741852	0.12797703	0.03565607	-1.06172398	-1.16781983	0.93063693	-5.77843095	-1.09147388	0.15543995	-0.41171617	0.02764611	-0.03575025	-0.12405381	1.08992929	5.18430069	-1.12149681
4587	45.86000000	0.27324691	-0.17089744	0.08730871	-0.01106540	0.13176919	-0.16908360	-0.39168107	0.03808824	-0.37540166	0.18759903	0.01537310	-1.04711698	-1.05083142	0.99215237	-5.80217571	-0.97868709	0.13475978	-0.26725880	0.04528937	-0.04009560	-0.15190128	1.11982670	5.09502795	-1.18096875
4588	45.87000000	0.23760145	-0.18623684	0.08735559	-0.04782384	0.12081587	-0.15436870	-0.29196664	0.04032841	-0.38895450	0.22767309	-0.01303053	-1.01752900	-0.61137485	1.02103742	-5.74417545	-0.79252138	0.07169960	-0.11528013	0.07175288	-0.01388254	-0.16888349	1.13101628	4.81492226	-1.20211168
4589	45.88000000	0.19272499	-0.18600119	0.07553208	-0.08021438	0.07790057	-0.13746123	-0.15809021	0.03721189	-0.42805458	0.23047071	-0.04326704	-0.97345588	0.07818874	1.06594247	-5.69693374	-0.57200790	-0.00957241	0.00569516	0.07027439	-0.02684481	-0.18309765	0.88151394	4.56855612	-1.16659076
4590	45.89000000	0.12360487	-0.17763049	0.06490944	-0.12100950	0.00385631	-0.11578380	-0.06039799	0.03576178	-0.52041322	0.21086742	-0.06393295	-0.91911054	0.22565337	1.13641138	-5.58562190	-0.40534265	-0.05511543	0.14583347	0.07863200	-0.02822176	-0.19666317	0.38778835	4.65784664	-1.13194983
4591	45.90000000	0.05298719	-0.16470456	0.05779538	-0.17460803	-0.06410822	-0.08782186	0.03479076	0.01566463	-0.61597877	0.14433582	-0.07722298	-0.84976535	-0.12726839	1.11468923	-5.37673224	-0.21689814	-0.07739538	0.30652123	0.08749846	-0.02369401	-0.20602427	0.02004729	4.93908666	-1.23750483
4592	45.91000000	-0.00814233	-0.14682018	0.05315984	-0.22904515	-0.12059606	-0.06303402	0.10017206	0.02787322	-0.66023790	0.05926604	-0.05984639	-0.76701096	-0.54648569	0.96425457	-5.01877016	0.00475156	-0.11045667	0.48516403	0.08772446	-0.04611688	-0.22021793	0.02958331	5.04813986	-1.54047355
4593	45.92000000	-0.06817826	-0.12879163	0.04906750	-0.28408577	-0.14951949	-0.03732288	0.11540014	0.03459637	-0.73070788	0.01454736	-0.03813529	-0.69525251	-1.05198210	0.93869676	-4.55219455	0.13585913	-0.09896548	0.66000721	0.07234200	-0.04919297	-0.21925535	0.02125502	4.94250289	-1.91515513
4594	45.93000000	-0.11659344	-0.11683332	0.04562187	-0.32296942	-0.16991655	-0.01647234	0.06248083	0.03001722	-0.79902707	-0.00982929	-0.02437208	-0.65420187	-1.36445541	1.11268577	-4.16581299	0.21087514	-0.07719525	0.80303971	0.04638507	-0.05576335	-0.21647811	-0.28392756	4.74869527	-2.27405113
4595	45.94000000	-0.15374700	-0.10043503	0.02920618	-0.33777367	-0.15297460	-0.00377306	-0.00421988	0.04860626	-0.86922395	-0.02813782	-0.00964876	-0.62895431	-1.41834882	1.28254583	-3.81453061	0.24717817	-0.03525406	0.93338766	0.02718219	-0.07712946	-0.21971637	-0.37033155	4.44475373	-2.50992093
